<svg 
 xmlns="http://www.w3.org/2000/svg"
 xmlns:xlink="http://www.w3.org/1999/xlink"
 width="41px" height="40px">
<path fill-rule="evenodd"  fill="rgb(203, 203, 203)"
 d="M2.279,0.004 C4.226,0.004 6.174,0.004 8.121,0.004 C9.526,0.004 10.550,-0.071 11.346,0.545 C12.359,1.328 12.300,2.405 12.300,4.193 C12.300,5.638 12.300,7.083 12.300,8.528 C12.300,9.244 12.391,10.153 12.214,10.731 C12.048,11.270 11.718,11.741 11.317,12.045 C10.416,12.729 8.804,12.556 7.239,12.556 C6.078,12.556 4.916,12.556 3.754,12.556 C3.166,12.556 2.443,12.626 1.947,12.498 C1.320,12.335 0.798,11.947 0.472,11.476 C-0.020,10.766 0.023,9.872 0.023,8.659 C0.023,7.103 0.023,5.546 0.023,3.989 C0.023,2.958 -0.028,1.941 0.342,1.304 C0.633,0.800 1.081,0.394 1.643,0.165 C1.855,0.111 2.067,0.058 2.279,0.004 ZM16.089,0.004 C17.983,0.004 19.878,0.004 21.772,0.004 C23.426,0.004 24.345,-0.112 25.286,0.647 C26.192,1.378 26.124,2.543 26.124,4.179 C26.124,5.609 26.124,7.039 26.124,8.469 C26.124,9.178 26.214,10.067 26.052,10.659 C25.889,11.253 25.534,11.753 25.098,12.074 C24.202,12.735 22.513,12.556 20.976,12.556 C19.815,12.556 18.653,12.556 17.492,12.556 C16.879,12.556 16.140,12.621 15.655,12.468 C15.107,12.296 14.625,11.947 14.325,11.520 C13.803,10.778 13.847,9.891 13.847,8.615 C13.847,7.083 13.847,5.551 13.847,4.018 C13.847,3.001 13.785,1.951 14.151,1.318 C14.433,0.831 14.861,0.424 15.395,0.194 C15.626,0.131 15.858,0.068 16.089,0.004 ZM29.913,0.004 C31.841,0.004 33.769,0.004 35.697,0.004 C37.183,0.004 38.205,-0.072 39.037,0.588 C39.985,1.341 39.948,2.409 39.948,4.106 C39.948,5.560 39.948,7.015 39.948,8.469 C39.948,9.222 40.032,10.148 39.847,10.746 C39.690,11.256 39.372,11.723 38.994,12.016 C38.043,12.754 36.461,12.556 34.815,12.556 C33.658,12.556 32.501,12.556 31.344,12.556 C30.774,12.556 30.058,12.633 29.580,12.498 C28.992,12.331 28.482,11.991 28.163,11.549 C27.620,10.797 27.657,9.894 27.657,8.586 C27.657,7.088 27.657,5.589 27.657,4.091 C27.657,3.069 27.602,2.020 27.946,1.362 C28.197,0.882 28.641,0.443 29.147,0.224 C29.361,0.130 29.701,0.133 29.913,0.004 ZM2.366,1.289 C1.906,1.516 1.584,1.584 1.383,2.063 C1.199,2.497 1.296,3.322 1.296,3.901 C1.296,5.229 1.296,6.558 1.296,7.886 C1.296,8.545 1.176,9.940 1.354,10.440 C1.686,11.378 2.558,11.286 3.798,11.286 C5.272,11.286 6.748,11.286 8.222,11.286 C9.104,11.286 10.100,11.381 10.594,10.994 C11.121,10.582 11.042,9.698 11.042,8.747 C11.042,7.088 11.042,5.429 11.042,3.770 C11.042,2.792 11.105,1.973 10.565,1.552 C10.080,1.173 9.002,1.289 8.150,1.289 C6.222,1.289 4.294,1.289 2.366,1.289 ZM16.190,1.289 C15.699,1.516 15.407,1.566 15.192,2.077 C15.008,2.516 15.106,3.335 15.106,3.916 C15.106,5.244 15.106,6.572 15.106,7.901 C15.106,8.635 14.972,9.927 15.192,10.484 C15.546,11.376 16.378,11.286 17.593,11.286 C19.072,11.286 20.552,11.286 22.032,11.286 C22.872,11.286 23.894,11.390 24.375,11.023 C24.931,10.599 24.866,9.742 24.866,8.747 C24.866,7.093 24.866,5.438 24.866,3.785 C24.866,2.769 24.922,1.945 24.346,1.523 C23.862,1.167 22.766,1.289 21.945,1.289 C20.027,1.289 18.108,1.289 16.190,1.289 ZM30.014,1.289 C29.532,1.512 29.257,1.546 29.031,2.033 C28.836,2.454 28.930,3.275 28.930,3.857 C28.930,5.200 28.930,6.543 28.930,7.886 C28.930,8.547 28.811,9.920 28.987,10.425 C29.323,11.385 30.199,11.286 31.460,11.286 C32.921,11.286 34.381,11.286 35.842,11.286 C36.723,11.286 37.736,11.386 38.228,10.994 C38.755,10.574 38.676,9.707 38.676,8.747 C38.676,7.079 38.676,5.409 38.676,3.741 C38.676,2.759 38.740,1.946 38.184,1.537 C37.689,1.172 36.601,1.289 35.755,1.289 C33.842,1.289 31.928,1.289 30.014,1.289 ZM2.409,13.709 C4.265,13.709 6.121,13.709 7.977,13.709 C9.609,13.709 10.535,13.601 11.462,14.351 C12.359,15.078 12.300,16.188 12.300,17.810 C12.300,19.255 12.300,20.700 12.300,22.144 C12.300,22.846 12.396,23.732 12.242,24.334 C12.092,24.925 11.735,25.451 11.303,25.764 C10.404,26.415 8.977,26.275 7.442,26.275 C6.242,26.275 5.041,26.275 3.841,26.275 C3.211,26.275 2.453,26.345 1.932,26.202 C1.077,25.968 0.436,25.365 0.154,24.553 C-0.071,23.908 0.023,22.856 0.023,22.014 C0.023,20.535 0.023,19.055 0.023,17.577 C0.023,16.568 -0.006,15.637 0.342,15.008 C0.652,14.446 1.181,14.031 1.831,13.811 C2.024,13.777 2.217,13.743 2.409,13.709 ZM16.248,13.709 C18.123,13.709 19.998,13.709 21.873,13.709 C23.402,13.709 24.420,13.636 25.271,14.322 C26.232,15.096 26.153,16.287 26.153,18.015 C26.153,19.406 26.153,20.797 26.153,22.189 C26.153,22.892 26.240,23.760 26.081,24.349 C25.912,24.975 25.536,25.494 25.069,25.823 C24.230,26.414 22.625,26.275 21.193,26.275 C19.984,26.275 18.774,26.275 17.564,26.275 C16.869,26.275 16.089,26.328 15.568,26.144 C15.012,25.947 14.525,25.550 14.238,25.078 C13.840,24.424 13.862,23.471 13.862,22.379 C13.862,20.841 13.862,19.304 13.862,17.766 C13.862,16.813 13.792,15.769 14.108,15.139 C14.403,14.550 14.919,14.069 15.568,13.840 C15.795,13.797 16.021,13.753 16.248,13.709 ZM30.072,13.709 C31.966,13.709 33.861,13.709 35.755,13.709 C37.223,13.709 38.246,13.639 39.066,14.293 C40.045,15.073 39.977,16.204 39.977,17.956 C39.977,19.376 39.977,20.797 39.977,22.218 C39.977,22.932 40.063,23.830 39.891,24.407 C39.718,24.986 39.374,25.480 38.936,25.794 C38.056,26.424 36.543,26.275 35.046,26.275 C33.861,26.275 32.675,26.275 31.489,26.275 C30.863,26.275 30.113,26.343 29.595,26.202 C28.879,26.007 28.342,25.555 28.004,24.976 C27.644,24.359 27.686,23.393 27.686,22.393 C27.686,20.802 27.686,19.211 27.686,17.620 C27.686,16.613 27.640,15.630 28.004,15.008 C28.326,14.457 28.832,14.017 29.494,13.811 C29.686,13.777 29.879,13.743 30.072,13.709 ZM2.395,14.994 C1.899,15.220 1.600,15.252 1.383,15.767 C1.201,16.198 1.296,17.016 1.296,17.592 C1.296,18.919 1.296,20.248 1.296,21.576 C1.296,22.130 1.296,22.684 1.296,23.239 C1.296,23.555 1.271,23.908 1.354,24.144 C1.683,25.086 2.545,24.991 3.783,24.990 C5.258,24.990 6.733,24.990 8.208,24.990 C9.070,24.991 10.093,25.094 10.580,24.714 C11.106,24.301 11.042,23.479 11.042,22.525 C11.042,20.851 11.042,19.177 11.042,17.503 C11.042,16.545 11.116,15.680 10.580,15.271 C10.076,14.886 9.018,14.994 8.136,14.994 C6.222,14.994 4.308,14.994 2.395,14.994 ZM16.233,14.994 C15.744,15.217 15.439,15.248 15.221,15.752 C15.030,16.195 15.120,17.018 15.120,17.620 C15.120,18.948 15.120,20.277 15.120,21.605 C15.120,22.353 14.985,23.685 15.221,24.232 C15.587,25.081 16.394,24.991 17.578,24.990 C19.082,24.990 20.586,24.990 22.090,24.990 C22.920,24.991 23.934,25.096 24.404,24.728 C24.979,24.278 24.881,23.507 24.881,22.495 C24.881,20.832 24.881,19.167 24.881,17.503 C24.881,16.489 24.982,15.707 24.404,15.256 C23.921,14.879 22.851,14.994 22.003,14.994 C20.080,14.994 18.157,14.994 16.233,14.994 ZM30.058,14.994 C29.560,15.223 29.264,15.249 29.045,15.767 C28.863,16.197 28.958,17.016 28.959,17.592 C28.959,18.919 28.959,20.248 28.959,21.576 C28.959,22.130 28.959,22.684 28.959,23.239 C28.958,23.553 28.933,23.910 29.016,24.144 C29.355,25.091 30.210,24.991 31.460,24.990 C32.945,24.990 34.430,24.990 35.914,24.990 C36.857,24.991 37.770,25.099 38.300,24.670 C38.806,24.260 38.705,23.300 38.705,22.379 C38.705,20.744 38.705,19.109 38.705,17.474 C38.705,16.406 38.805,15.664 38.170,15.212 C37.688,14.869 36.586,14.994 35.784,14.994 C33.875,14.994 31.966,14.994 30.058,14.994 ZM2.294,27.428 C4.231,27.428 6.169,27.428 8.107,27.428 C9.565,27.428 10.571,27.351 11.389,27.997 C12.343,28.751 12.300,29.796 12.300,31.500 C12.300,32.945 12.300,34.390 12.300,35.835 C12.300,36.540 12.397,37.432 12.242,38.038 C12.095,38.617 11.757,39.122 11.346,39.440 C10.445,40.136 8.962,39.980 7.384,39.980 C6.189,39.980 4.993,39.980 3.798,39.980 C3.179,39.980 2.425,40.047 1.918,39.907 C1.262,39.725 0.719,39.308 0.399,38.783 C-0.000,38.126 0.023,37.165 0.023,36.068 C0.023,34.526 0.023,32.984 0.023,31.441 C0.023,30.433 -0.029,29.414 0.313,28.771 C0.588,28.252 1.064,27.815 1.629,27.588 C1.850,27.535 2.072,27.482 2.294,27.428 ZM16.103,27.428 C18.031,27.428 19.960,27.428 21.887,27.428 C23.420,27.428 24.349,27.319 25.228,28.012 C26.182,28.764 26.124,29.886 26.124,31.587 C26.124,33.033 26.124,34.477 26.124,35.922 C26.124,36.641 26.212,37.544 26.038,38.126 C25.870,38.684 25.540,39.155 25.127,39.469 C24.241,40.141 22.704,39.980 21.164,39.980 C19.974,39.980 18.783,39.980 17.593,39.980 C16.987,39.980 16.236,40.052 15.742,39.907 C15.072,39.711 14.538,39.309 14.209,38.768 C13.817,38.123 13.847,37.155 13.847,36.083 C13.847,34.507 13.847,32.930 13.847,31.354 C13.847,30.316 13.801,29.317 14.180,28.684 C14.488,28.170 14.967,27.759 15.568,27.545 C15.747,27.506 15.925,27.467 16.103,27.428 ZM29.927,27.428 C31.875,27.428 33.822,27.428 35.769,27.428 C37.178,27.428 38.198,27.350 38.994,27.968 C39.996,28.746 39.948,29.843 39.948,31.617 C39.948,33.033 39.948,34.448 39.948,35.864 C39.948,36.574 40.036,37.459 39.876,38.053 C39.718,38.638 39.388,39.133 38.965,39.454 C38.068,40.136 36.578,39.980 35.017,39.980 C33.798,39.980 32.578,39.980 31.359,39.980 C30.664,39.980 29.880,40.032 29.364,39.848 C28.781,39.642 28.299,39.224 28.004,38.725 C27.626,38.084 27.657,37.116 27.657,36.068 C27.657,34.502 27.657,32.935 27.657,31.369 C27.657,30.356 27.609,29.354 27.975,28.727 C28.277,28.211 28.727,27.808 29.306,27.574 C29.513,27.525 29.720,27.477 29.927,27.428 ZM2.424,28.698 C1.899,28.926 1.624,28.950 1.383,29.472 C1.180,29.910 1.296,31.061 1.296,31.675 C1.296,33.081 1.296,34.487 1.296,35.893 C1.296,36.492 1.182,37.357 1.354,37.849 C1.685,38.796 2.539,38.695 3.783,38.695 C5.258,38.695 6.733,38.695 8.208,38.695 C9.048,38.695 10.089,38.805 10.565,38.432 C11.105,38.010 11.042,37.193 11.042,36.214 C11.042,34.556 11.042,32.896 11.042,31.237 C11.042,30.286 11.121,29.402 10.594,28.989 C10.088,28.593 9.035,28.698 8.136,28.698 C6.232,28.698 4.328,28.698 2.424,28.698 ZM16.248,28.698 C15.746,28.915 15.457,28.936 15.221,29.428 C15.018,29.851 15.106,30.666 15.106,31.267 C15.106,32.604 15.106,33.942 15.106,35.280 C15.106,35.966 14.989,37.423 15.192,37.907 C15.567,38.800 16.378,38.695 17.607,38.695 C19.092,38.695 20.576,38.695 22.061,38.695 C22.938,38.695 23.931,38.792 24.418,38.403 C24.942,37.985 24.866,37.094 24.866,36.141 C24.866,34.487 24.866,32.833 24.866,31.179 C24.866,30.199 24.922,29.377 24.375,28.960 C23.883,28.586 22.816,28.698 21.960,28.698 C20.056,28.698 18.152,28.698 16.248,28.698 ZM30.058,28.698 C29.530,28.939 29.253,28.926 29.016,29.486 C28.816,29.961 28.930,31.088 28.930,31.733 C28.930,33.120 28.930,34.507 28.930,35.893 C28.930,36.489 28.818,37.344 28.987,37.834 C29.324,38.808 30.189,38.695 31.460,38.695 C32.925,38.695 34.391,38.695 35.856,38.695 C36.762,38.695 37.756,38.789 38.257,38.389 C38.770,37.979 38.676,37.044 38.676,36.112 C38.676,34.468 38.676,32.823 38.676,31.179 C38.676,30.131 38.772,29.379 38.155,28.932 C37.671,28.579 36.587,28.698 35.769,28.698 C33.866,28.698 31.961,28.698 30.058,28.698 Z"/>
</svg>