<svg 
 xmlns="http://www.w3.org/2000/svg"
 xmlns:xlink="http://www.w3.org/1999/xlink"
 width="40px" height="40px">
<path fill-rule="evenodd"  fill="rgb(203, 203, 203)"
 d="M19.665,-0.001 C22.149,-0.029 23.554,1.305 24.003,3.302 C24.133,3.876 24.065,4.639 24.065,5.304 C24.065,6.045 24.004,6.634 23.797,7.162 C23.237,8.587 22.094,9.472 20.368,9.742 C19.558,9.868 18.844,9.587 18.343,9.370 C16.669,8.647 15.968,7.285 15.968,4.850 C15.968,4.148 15.950,3.464 16.112,2.930 C16.509,1.624 17.403,0.701 18.633,0.226 C18.977,0.151 19.321,0.075 19.665,-0.001 ZM19.789,1.279 C19.555,1.327 19.321,1.375 19.087,1.424 C18.245,1.749 17.582,2.410 17.331,3.322 C17.217,3.737 17.248,4.274 17.248,4.788 C17.248,5.349 17.205,5.964 17.331,6.419 C17.611,7.426 18.765,8.698 20.244,8.462 C21.516,8.259 22.344,7.584 22.681,6.459 C22.804,6.052 22.764,5.473 22.764,4.953 C22.764,4.461 22.822,3.873 22.723,3.446 C22.420,2.143 21.423,1.266 19.789,1.279 ZM9.812,2.146 C11.919,2.121 13.181,3.323 13.592,4.994 C13.726,5.540 13.675,6.276 13.675,6.935 C13.675,7.590 13.612,8.115 13.427,8.586 C12.928,9.853 11.886,10.636 10.349,10.877 C8.440,11.176 6.936,9.523 6.548,8.235 C6.398,7.738 6.424,7.085 6.424,6.440 C6.424,5.877 6.399,5.310 6.527,4.870 C6.884,3.643 7.677,2.793 8.820,2.352 C9.151,2.284 9.481,2.215 9.812,2.146 ZM29.746,2.146 C32.343,2.115 33.588,3.812 33.589,6.440 C33.589,7.085 33.615,7.738 33.465,8.235 C33.015,9.719 31.945,10.614 30.263,10.877 C29.636,10.975 29.032,10.774 28.631,10.609 C27.012,9.942 26.338,8.735 26.338,6.419 C26.338,5.794 26.338,5.223 26.482,4.747 C26.818,3.642 27.603,2.807 28.631,2.393 C28.968,2.258 29.373,2.291 29.746,2.146 ZM9.729,3.446 C9.543,3.494 9.357,3.543 9.171,3.591 C8.526,3.861 7.996,4.413 7.787,5.118 C7.679,5.483 7.705,5.958 7.705,6.419 C7.705,6.932 7.664,7.498 7.787,7.905 C8.032,8.710 8.995,9.781 10.184,9.597 C11.210,9.438 11.889,8.962 12.229,8.132 C12.387,7.744 12.373,7.219 12.373,6.666 C12.366,6.226 12.360,5.786 12.353,5.345 C12.100,4.127 11.240,3.430 9.729,3.446 ZM29.664,3.446 C29.457,3.501 29.250,3.556 29.044,3.612 C28.439,3.871 27.923,4.416 27.722,5.077 C27.611,5.442 27.639,5.946 27.639,6.419 C27.639,6.904 27.584,7.491 27.701,7.884 C27.944,8.696 28.905,9.780 30.097,9.597 C31.148,9.436 31.827,8.952 32.163,8.090 C32.313,7.706 32.308,7.202 32.308,6.666 C32.308,4.578 31.741,3.424 29.664,3.446 ZM26.978,18.699 C26.984,19.339 27.068,20.070 26.668,20.309 C26.346,20.503 24.398,20.392 23.818,20.392 C21.360,20.392 18.901,20.392 16.443,20.392 C15.834,20.392 13.698,20.510 13.365,20.309 C12.961,20.066 13.049,19.345 13.055,18.699 C10.776,18.699 8.496,18.699 6.217,18.699 C5.430,18.699 4.173,18.884 3.924,18.328 C3.726,17.884 3.862,16.597 3.862,15.995 C3.862,15.328 3.797,14.572 3.924,13.994 C4.333,12.133 5.543,11.036 7.498,10.712 C8.235,10.590 8.364,11.145 8.717,11.414 C9.009,11.637 9.374,11.793 9.812,11.868 C10.657,12.012 11.323,11.595 11.692,11.228 C11.852,11.069 11.961,10.844 12.187,10.753 C12.755,10.525 13.840,11.039 14.191,11.228 C15.139,10.512 15.440,10.077 16.918,9.804 C17.156,9.760 17.495,9.711 17.703,9.804 C17.912,9.896 18.025,10.145 18.178,10.299 C18.606,10.730 19.388,11.248 20.368,11.083 C21.035,10.971 21.547,10.727 21.938,10.340 C22.109,10.171 22.240,9.904 22.475,9.804 C22.648,9.730 22.920,9.771 23.095,9.804 C24.336,10.037 25.114,10.482 25.821,11.228 C26.184,11.035 27.355,10.488 27.970,10.753 C28.155,10.833 28.249,11.031 28.383,11.166 C28.769,11.555 29.426,12.026 30.325,11.868 C30.725,11.797 31.079,11.653 31.358,11.455 C31.687,11.220 31.877,10.607 32.514,10.712 C34.466,11.032 35.683,12.136 36.088,13.994 C36.215,14.574 36.150,15.327 36.150,15.995 C36.150,16.595 36.286,17.888 36.088,18.328 C35.838,18.884 34.584,18.699 33.795,18.699 C31.523,18.699 29.250,18.699 26.978,18.699 ZM14.336,19.113 C18.116,19.113 21.897,19.113 25.677,19.113 C25.677,17.853 25.677,16.594 25.677,15.335 C25.677,14.687 25.742,13.922 25.594,13.395 C25.360,12.562 24.850,11.950 24.189,11.537 C23.862,11.333 23.485,11.118 22.991,11.083 C22.290,12.017 20.540,12.709 18.942,12.218 C18.144,11.973 17.699,11.503 17.125,11.063 C13.663,11.515 14.325,15.300 14.336,19.113 ZM5.164,17.399 C7.794,17.399 10.425,17.399 13.055,17.399 C13.062,16.154 13.069,14.908 13.076,13.663 C13.153,13.237 13.471,12.558 13.468,12.280 C13.210,12.201 12.993,12.083 12.683,12.033 C11.575,13.515 8.592,13.485 7.498,12.012 C4.901,12.750 5.146,14.201 5.164,17.399 ZM26.978,17.399 C29.601,17.399 32.225,17.399 34.849,17.399 C34.868,15.195 35.077,13.531 33.795,12.569 C33.474,12.329 33.105,12.084 32.597,12.033 C31.904,12.994 30.020,13.488 28.610,12.879 C28.127,12.671 27.771,12.342 27.412,12.012 C27.092,12.100 26.819,12.189 26.544,12.280 C26.643,12.743 26.861,13.185 26.958,13.725 C26.964,14.950 26.971,16.175 26.978,17.399 ZM28.693,22.147 C29.612,22.133 30.311,22.283 30.882,22.622 C31.062,22.728 31.215,22.923 31.440,22.972 C32.575,22.068 34.561,22.631 35.241,23.550 C36.752,22.807 38.320,23.014 39.373,24.066 C39.656,24.349 40.262,24.911 39.889,25.449 C35.827,28.249 31.763,31.050 27.701,33.850 C25.580,35.106 22.612,34.830 20.037,34.263 C19.211,34.118 18.385,33.973 17.558,33.829 C16.884,33.705 16.209,33.582 15.534,33.458 C15.207,33.387 14.798,33.233 14.356,33.313 C13.806,33.413 13.488,33.687 13.096,33.932 C12.188,34.496 11.278,35.061 10.370,35.625 C10.693,36.677 11.017,37.730 11.340,38.782 C11.484,39.240 11.512,39.737 11.072,39.918 C10.655,40.089 9.485,39.959 8.944,39.959 C7.292,39.959 5.639,39.959 3.986,39.959 C3.170,39.959 2.079,40.142 1.879,39.505 C1.397,35.597 0.915,31.689 0.433,27.782 C0.316,26.818 0.199,25.855 0.082,24.892 C0.019,24.539 -0.056,24.076 0.103,23.818 C0.334,23.444 0.989,23.529 1.590,23.529 C2.761,23.529 3.931,23.529 5.102,23.529 C5.566,23.529 6.269,23.445 6.569,23.633 C6.839,23.802 7.362,25.564 7.416,26.006 C8.540,25.574 9.089,24.795 9.956,24.149 C11.015,23.359 12.267,22.841 13.840,22.559 C15.410,22.278 17.073,22.681 18.157,23.137 C18.674,23.355 19.146,23.666 19.707,23.839 C20.496,24.083 21.559,24.046 22.599,24.046 C23.260,24.046 23.921,24.046 24.582,24.046 C25.463,23.557 26.345,23.069 27.226,22.580 C27.673,22.321 28.180,22.359 28.693,22.147 ZM28.837,23.426 C28.624,23.468 28.410,23.509 28.197,23.550 C27.777,23.777 27.357,24.004 26.937,24.231 C27.418,24.312 27.701,24.658 28.114,24.768 C28.775,24.410 29.436,24.052 30.097,23.694 C29.857,23.462 29.302,23.423 28.837,23.426 ZM14.728,23.777 C14.480,23.798 14.233,23.818 13.985,23.839 C13.434,23.943 12.907,24.044 12.435,24.231 C10.957,24.819 10.359,25.710 9.213,26.523 C8.944,26.680 8.676,26.839 8.407,26.997 C8.207,27.080 8.008,27.162 7.808,27.245 C8.531,29.618 9.254,31.992 9.977,34.366 C11.427,33.583 12.521,32.305 14.418,32.013 C15.104,31.907 16.406,32.293 17.021,32.426 C17.999,32.597 18.977,32.769 19.955,32.941 C21.631,33.301 23.837,33.795 25.677,33.251 C27.432,32.733 28.648,31.637 29.994,30.692 C32.803,28.772 35.613,26.852 38.422,24.933 C38.395,24.898 38.367,24.864 38.340,24.830 C37.949,24.649 37.522,24.241 36.852,24.355 C35.935,24.512 35.325,24.946 34.642,25.346 C33.761,25.821 32.879,26.295 31.998,26.770 C31.268,27.162 30.538,27.554 29.808,27.947 C29.817,28.864 28.952,28.847 28.052,28.710 C27.440,28.683 26.827,28.655 26.214,28.628 C25.271,28.484 24.019,28.462 23.074,28.607 C22.329,28.721 21.215,28.935 21.070,28.215 C20.889,27.315 21.986,27.450 22.640,27.348 C24.495,27.057 26.587,27.371 28.445,27.430 C28.445,27.424 28.445,27.417 28.445,27.410 C28.111,26.444 27.534,25.728 26.544,25.428 C26.087,25.290 25.459,25.325 24.871,25.325 C23.893,25.325 22.915,25.325 21.938,25.325 C21.344,25.325 20.716,25.364 20.203,25.263 C18.214,24.873 17.178,23.790 14.728,23.777 ZM32.804,23.777 C31.881,24.159 31.100,24.579 30.283,25.057 C29.870,25.277 29.457,25.497 29.044,25.717 C29.194,26.003 29.355,26.341 29.540,26.626 C31.041,25.814 32.542,25.002 34.043,24.190 C34.036,24.176 34.029,24.162 34.022,24.149 C33.633,23.989 33.406,23.778 32.804,23.777 ZM1.384,24.809 C1.948,29.432 2.513,34.057 3.077,38.680 C5.370,38.680 7.664,38.680 9.956,38.680 C9.956,38.673 9.956,38.666 9.956,38.659 C8.545,34.043 7.133,29.425 5.722,24.809 C4.276,24.809 2.829,24.809 1.384,24.809 ZM5.970,34.923 C8.480,34.870 8.584,38.037 6.465,38.411 C5.192,38.635 4.171,37.316 4.544,36.141 C4.784,35.387 5.277,35.238 5.970,34.923 ZM6.114,36.203 C5.576,36.510 5.736,37.292 6.341,37.131 C6.864,36.993 6.778,36.166 6.114,36.203 Z"/>
</svg>