<svg 
 xmlns="http://www.w3.org/2000/svg"
 xmlns:xlink="http://www.w3.org/1999/xlink"
 width="36px" height="35px">
<path fill-rule="evenodd"  fill="rgb(203, 203, 203)"
 d="M7.373,0.011 C9.902,-0.032 11.104,1.853 12.375,3.126 C13.111,3.864 13.848,4.601 14.584,5.339 C15.160,5.916 15.807,6.450 16.157,7.251 C16.295,7.565 16.399,7.930 16.475,8.295 C16.945,10.529 15.305,11.857 14.337,12.827 C13.930,13.234 13.524,13.641 13.117,14.049 C15.739,16.674 18.361,19.300 20.983,21.926 C21.148,21.761 21.313,21.595 21.478,21.430 C21.802,21.112 22.126,20.793 22.450,20.474 C23.298,19.624 24.028,18.834 25.472,18.563 C26.481,18.374 27.539,18.702 28.141,19.076 C29.132,19.693 29.895,20.673 30.704,21.483 C31.400,22.180 32.095,22.876 32.790,23.572 C33.735,24.518 34.658,25.257 34.982,26.847 C35.365,28.730 34.182,30.003 33.356,30.830 C31.513,32.675 30.114,33.832 27.187,34.636 C26.346,34.867 24.849,35.122 23.740,34.937 C22.263,34.691 21.059,34.470 19.905,33.963 C17.336,32.838 15.626,30.670 13.771,28.812 C11.573,26.611 9.376,24.410 7.178,22.209 C6.247,21.277 5.316,20.345 4.385,19.412 C3.134,18.159 1.897,16.926 1.133,15.182 C0.793,14.404 0.510,13.549 0.320,12.632 C-0.631,8.041 1.509,4.413 3.661,2.259 C4.291,1.627 4.882,0.878 5.711,0.453 C6.030,0.289 6.411,0.171 6.789,0.081 C6.984,0.058 7.178,0.034 7.373,0.011 ZM21.106,0.011 C23.757,0.011 26.409,0.011 29.061,0.011 C31.160,0.010 32.485,-0.126 33.692,0.807 C34.153,1.164 34.560,1.727 34.787,2.312 C35.134,3.205 35.017,4.668 35.017,5.888 C35.017,7.227 35.017,8.567 35.017,9.906 C35.017,10.610 35.096,11.452 34.947,12.048 C34.744,12.860 34.329,13.578 33.762,14.031 C33.221,14.462 32.611,14.744 31.765,14.880 C31.046,14.880 30.327,14.880 29.608,14.880 C29.401,14.880 29.103,14.850 28.954,14.916 C28.495,15.518 28.035,16.120 27.576,16.721 C27.361,17.006 27.170,17.395 26.869,17.589 C26.638,17.738 26.179,17.755 25.932,17.607 C25.667,17.447 25.515,17.141 25.331,16.899 C24.807,16.226 24.282,15.553 23.758,14.880 C22.786,14.874 21.813,14.869 20.841,14.862 C19.510,14.607 18.528,13.876 18.049,12.774 C17.699,11.971 17.730,10.825 17.730,9.641 C17.730,8.360 17.730,7.079 17.730,5.799 C17.730,4.252 17.653,2.726 18.225,1.781 C18.669,1.049 19.365,0.447 20.258,0.170 C20.541,0.117 20.824,0.064 21.106,0.011 ZM7.514,1.816 C7.084,1.823 6.744,1.936 6.418,2.135 C5.829,2.493 5.469,3.122 4.933,3.533 C6.612,5.215 8.292,6.897 9.971,8.578 C10.062,8.767 10.264,8.968 10.201,9.304 C10.079,9.940 9.323,10.364 8.716,9.906 C7.049,8.242 5.381,6.578 3.714,4.914 C3.543,5.179 3.372,5.445 3.201,5.710 C2.917,6.185 2.687,6.732 2.476,7.268 C1.851,8.864 1.754,11.593 2.353,13.305 C3.188,15.694 4.459,16.919 6.047,18.510 C6.737,19.201 7.389,20.002 8.168,20.598 C10.448,22.894 12.728,25.189 15.008,27.484 C16.827,29.306 18.461,31.425 21.036,32.476 C21.605,32.709 22.240,32.875 22.892,33.008 C25.895,33.620 28.383,32.458 30.121,31.343 C27.464,28.677 24.806,26.009 22.149,23.342 C22.132,23.354 22.114,23.366 22.096,23.377 C22.019,23.537 21.834,23.619 21.725,23.749 C21.505,24.013 21.077,24.250 20.612,24.051 C20.385,23.954 20.228,23.719 20.064,23.555 C19.710,23.206 19.357,22.858 19.003,22.510 C16.393,19.902 13.783,17.294 11.173,14.686 C10.541,13.883 11.270,13.348 11.721,12.898 C12.204,12.408 12.687,11.918 13.170,11.428 C13.777,10.821 14.495,10.323 14.690,9.304 C14.941,7.998 14.009,7.330 13.435,6.755 C12.363,5.681 11.290,4.607 10.218,3.533 C9.692,3.007 9.195,2.304 8.468,1.993 C8.184,1.871 7.887,1.814 7.514,1.816 ZM21.248,1.816 C21.071,1.852 20.894,1.887 20.718,1.923 C20.239,2.106 19.846,2.494 19.657,2.967 C19.427,3.542 19.551,4.589 19.551,5.339 C19.551,6.902 19.551,8.466 19.551,10.030 C19.551,11.240 19.524,12.144 20.187,12.668 C20.866,13.204 22.237,13.075 23.457,13.075 C23.781,13.081 24.105,13.087 24.429,13.092 C24.838,13.203 26.187,14.916 26.374,15.323 C26.386,15.317 26.397,15.311 26.409,15.305 C26.598,15.057 26.786,14.809 26.975,14.562 C27.255,14.188 27.636,13.491 28.000,13.234 C28.136,13.181 28.271,13.128 28.407,13.075 C28.731,13.075 29.055,13.075 29.379,13.075 C30.972,13.075 32.306,13.268 32.931,12.260 C33.394,11.515 33.197,9.521 33.197,8.331 C33.191,6.637 33.185,4.943 33.179,3.250 C33.083,2.835 32.849,2.451 32.560,2.223 C31.903,1.704 30.560,1.834 29.379,1.834 C26.669,1.828 23.958,1.822 21.248,1.816 ZM25.808,20.350 C25.472,20.487 25.165,20.501 24.889,20.669 C24.309,21.022 23.965,21.661 23.422,22.050 C26.108,24.746 28.796,27.444 31.482,30.140 C31.865,29.762 32.248,29.385 32.631,29.007 C32.725,28.877 32.820,28.747 32.914,28.617 C33.206,28.134 33.315,27.276 33.073,26.670 C32.735,25.824 31.890,25.238 31.288,24.635 C30.009,23.354 28.730,22.074 27.452,20.793 C27.027,20.480 26.565,20.348 25.808,20.350 Z"/>
</svg>