<svg 
 xmlns="http://www.w3.org/2000/svg"
 xmlns:xlink="http://www.w3.org/1999/xlink"
 width="35px" height="36px">
<path fill-rule="evenodd"  fill="rgb(203, 203, 203)"
 d="M22.846,0.984 C24.383,0.968 25.967,0.942 27.202,1.228 C30.749,2.047 33.468,4.667 34.490,8.025 C34.817,9.100 35.173,10.709 34.907,12.162 C34.783,12.839 34.677,13.485 34.490,14.091 C34.055,15.504 33.281,16.627 32.460,17.655 C32.078,18.026 31.696,18.397 31.315,18.768 C31.315,20.083 31.315,21.399 31.315,22.714 C31.247,23.010 31.036,23.270 30.777,23.374 C30.190,23.610 29.812,23.191 29.510,22.887 C28.793,22.175 28.075,21.462 27.358,20.749 C26.812,20.874 26.245,20.928 25.640,21.028 C24.744,21.028 23.847,21.028 22.950,21.028 C21.918,21.114 20.790,20.775 20.000,20.489 C17.415,19.550 15.330,17.837 14.256,15.395 C13.592,13.883 12.879,11.647 13.354,9.381 C13.532,8.532 13.745,7.742 14.048,7.016 C15.133,4.422 17.226,2.593 19.879,1.558 C20.481,1.323 21.166,1.205 21.857,1.071 C22.187,1.043 22.517,1.013 22.846,0.984 ZM22.933,2.792 C22.748,2.803 22.563,2.815 22.378,2.826 C21.921,2.914 21.464,3.001 21.007,3.087 C19.268,3.609 17.753,4.614 16.790,5.921 C16.226,6.686 15.676,7.577 15.384,8.599 C14.167,12.865 16.339,16.396 18.907,18.003 C20.222,18.826 21.722,19.237 23.887,19.237 C24.315,19.237 24.743,19.237 25.171,19.237 C25.686,19.160 26.203,19.178 26.664,19.063 C26.976,18.985 27.375,18.758 27.775,18.837 C28.461,18.974 29.009,19.955 29.527,20.349 C29.524,19.779 29.417,18.380 29.579,17.968 C29.764,17.500 30.720,16.945 31.072,16.508 C31.819,15.578 32.475,14.575 32.859,13.275 C33.311,11.746 33.158,9.658 32.685,8.303 C31.688,5.447 29.514,3.572 26.334,2.896 C25.350,2.687 24.067,2.795 22.933,2.792 ZM23.974,5.712 C25.678,5.687 26.695,6.480 27.167,7.677 C27.859,9.433 26.653,11.480 25.189,11.727 C25.200,12.456 25.281,13.370 24.946,13.761 C24.479,14.304 23.568,13.963 23.402,13.361 C23.396,13.055 23.390,12.747 23.384,12.440 C23.384,11.348 23.414,10.687 24.044,10.250 C24.246,10.109 24.507,10.094 24.755,9.989 C25.206,9.798 25.733,9.251 25.536,8.494 C25.466,8.343 25.397,8.193 25.328,8.042 C25.210,7.877 25.045,7.759 24.859,7.659 C24.109,7.260 23.272,7.759 23.072,8.355 C22.971,8.654 23.032,9.041 22.881,9.276 C22.604,9.708 21.901,9.817 21.475,9.450 C21.099,9.126 21.206,8.300 21.371,7.833 C21.689,6.937 22.266,6.269 23.124,5.921 C23.407,5.851 23.691,5.782 23.974,5.712 ZM13.146,32.987 C13.161,34.238 13.448,35.775 12.347,35.960 C11.771,36.057 11.458,35.538 11.202,35.282 C10.433,34.517 9.663,33.752 8.894,32.987 C7.899,32.987 6.904,32.987 5.909,32.987 C5.273,32.988 4.597,33.025 4.053,32.918 C2.305,32.572 0.755,31.229 0.287,29.615 C-0.171,28.038 0.044,25.436 0.044,23.461 C0.044,22.007 0.044,20.552 0.044,19.098 C0.044,18.291 -0.029,17.362 0.131,16.681 C0.576,14.789 1.818,13.401 3.636,12.892 C4.408,12.675 5.452,12.718 6.447,12.718 C7.841,12.718 9.236,12.718 10.630,12.718 C11.610,12.718 12.894,12.615 12.677,13.761 C12.486,14.771 11.107,14.526 9.935,14.526 C8.703,14.526 7.471,14.526 6.239,14.526 C5.621,14.526 4.864,14.448 4.330,14.578 C3.713,14.729 3.260,15.020 2.838,15.360 C1.710,16.272 1.849,17.909 1.849,19.932 C1.849,21.925 1.849,23.919 1.849,25.912 C1.849,26.873 1.713,28.111 1.953,28.902 C2.191,29.686 2.687,30.305 3.306,30.710 C4.354,31.394 6.449,31.197 8.165,31.197 C8.622,31.197 9.079,31.197 9.536,31.197 C10.095,31.321 10.872,32.496 11.358,32.866 C11.353,32.214 11.321,31.643 11.688,31.371 C12.124,31.046 13.721,31.197 14.482,31.197 C15.720,31.197 16.958,31.197 18.195,31.197 C18.961,31.197 19.791,31.245 20.399,31.075 C20.738,30.980 21.088,30.792 21.354,30.606 C22.907,29.517 22.656,27.808 22.655,25.252 C22.655,24.675 22.528,23.502 22.707,23.061 C22.928,22.520 23.829,22.257 24.252,22.800 C24.626,23.282 24.460,25.905 24.460,26.851 C24.460,27.504 24.526,28.260 24.408,28.833 C23.974,30.943 22.705,32.267 20.746,32.848 C20.016,33.065 18.962,32.987 18.039,32.987 C16.408,32.987 14.777,32.987 13.146,32.987 ZM24.200,14.891 C25.429,14.865 25.497,16.488 24.408,16.699 C23.780,16.821 23.224,16.198 23.402,15.569 C23.525,15.131 23.802,15.065 24.200,14.891 ZM4.469,18.108 C7.257,18.108 10.046,18.108 12.833,18.108 C13.895,18.107 15.598,17.896 15.297,19.202 C15.087,20.115 13.884,19.915 12.781,19.915 C10.792,19.915 8.801,19.915 6.812,19.915 C6.166,19.915 4.668,20.036 4.209,19.846 C3.707,19.638 3.518,18.851 3.914,18.385 C4.052,18.223 4.258,18.204 4.469,18.108 ZM4.504,21.879 C8.402,21.879 12.302,21.879 16.200,21.879 C17.388,21.879 19.871,21.522 19.688,22.836 C19.645,23.144 19.501,23.408 19.289,23.548 C18.875,23.822 16.678,23.688 15.922,23.688 C12.099,23.688 8.275,23.688 4.452,23.688 C3.909,23.577 3.421,22.924 3.810,22.297 C3.972,22.036 4.202,22.010 4.504,21.879 ZM4.521,25.652 C7.737,25.652 10.954,25.652 14.170,25.652 C15.307,25.651 17.291,25.361 17.033,26.712 C16.838,27.731 15.333,27.460 14.152,27.460 C11.839,27.460 9.525,27.460 7.211,27.460 C6.523,27.460 5.834,27.460 5.146,27.460 C4.847,27.460 4.464,27.498 4.244,27.407 C3.680,27.176 3.476,26.258 4.018,25.843 C4.160,25.734 4.338,25.731 4.521,25.652 ZM18.733,25.652 C19.891,25.672 19.952,27.259 18.924,27.460 C18.225,27.596 17.674,26.874 17.935,26.225 C18.089,25.842 18.345,25.810 18.733,25.652 Z"/>
</svg>