<svg 
 xmlns="http://www.w3.org/2000/svg"
 xmlns:xlink="http://www.w3.org/1999/xlink"
 width="38px" height="35px">
<path fill-rule="evenodd"  fill="rgb(203, 203, 203)"
 d="M3.139,0.007 C9.440,0.007 15.742,0.007 22.043,0.007 C23.411,0.007 24.780,0.007 26.148,0.007 C26.958,0.007 27.867,-0.046 28.507,0.126 C29.069,0.277 29.506,0.564 29.904,0.877 C31.201,1.895 30.941,3.994 30.935,6.251 C31.651,6.934 32.368,7.616 33.084,8.298 C34.482,9.399 35.714,10.733 36.474,12.461 C37.062,13.800 36.980,15.738 36.980,17.665 C36.980,20.610 36.980,23.557 36.980,26.502 C36.980,28.515 36.980,30.529 36.980,32.542 C36.980,33.342 37.121,34.410 36.648,34.760 C36.157,35.123 34.852,34.965 34.028,34.965 C31.803,34.965 29.578,34.965 27.354,34.965 C26.594,34.965 25.012,35.109 24.576,34.794 C24.144,34.483 24.209,33.826 24.209,33.088 C24.209,31.746 24.209,30.403 24.209,29.061 C24.209,28.908 24.209,28.755 24.209,28.601 C24.052,28.374 23.894,28.146 23.737,27.918 C23.494,27.522 23.297,27.070 23.091,26.639 C22.460,25.322 22.303,22.720 22.881,21.230 C19.131,22.590 15.380,23.949 11.630,25.308 C10.198,25.859 8.185,26.900 6.493,25.923 C5.102,25.118 4.744,23.477 4.100,21.947 C3.687,20.935 3.273,19.922 2.860,18.910 C1.307,18.698 0.351,17.630 0.064,16.164 C0.058,15.078 0.053,13.991 0.047,12.905 C0.047,10.960 0.047,9.015 0.047,7.070 C0.047,5.349 -0.193,2.873 0.414,1.713 C0.771,1.030 1.501,0.424 2.300,0.178 C2.580,0.120 2.860,0.064 3.139,0.007 ZM3.296,1.832 C2.736,2.052 2.444,2.037 2.143,2.515 C1.794,3.069 1.951,4.637 1.951,5.518 C1.951,7.957 1.951,10.397 1.951,12.837 C1.951,13.972 1.745,15.955 2.248,16.607 C2.428,16.840 2.754,17.041 3.087,17.119 C4.403,17.125 5.719,17.131 7.035,17.136 C11.583,17.136 16.132,17.136 20.680,17.136 C20.633,17.091 20.587,17.045 20.540,16.999 C20.342,16.795 20.144,16.590 19.946,16.385 C19.346,15.659 18.622,15.132 18.199,14.219 C18.045,13.885 17.989,13.473 17.989,13.007 C17.989,11.269 19.114,10.225 20.453,9.783 C20.811,9.665 21.381,9.546 21.885,9.629 C23.761,9.939 23.957,10.692 25.100,11.591 C26.410,12.819 27.721,14.048 29.031,15.277 C29.031,12.183 29.031,9.089 29.031,5.995 C29.031,4.892 29.231,2.987 28.734,2.361 C28.293,1.806 27.506,1.832 26.480,1.832 C25.071,1.832 23.661,1.832 22.252,1.832 C15.934,1.832 9.614,1.832 3.296,1.832 ZM4.152,2.293 C5.797,2.281 7.735,2.064 8.642,2.805 C8.883,3.001 9.082,3.369 9.167,3.709 C9.254,4.061 9.201,4.564 9.201,4.972 C9.201,5.730 9.330,6.758 9.132,7.395 C9.015,7.767 8.740,8.124 8.450,8.333 C7.960,8.686 7.286,8.691 6.406,8.691 C4.636,8.691 3.387,8.879 2.702,7.770 C2.294,7.109 2.338,3.770 2.737,3.146 C2.927,2.850 3.265,2.568 3.611,2.429 C3.791,2.384 3.972,2.339 4.152,2.293 ZM18.479,2.856 C18.915,2.846 19.887,2.739 20.033,3.027 C20.128,3.212 20.132,4.691 20.068,4.972 C20.046,5.070 19.977,5.187 19.894,5.228 C19.581,5.379 18.299,5.272 18.199,5.074 C18.117,4.911 18.116,3.205 18.199,3.043 C18.254,2.936 18.368,2.913 18.479,2.856 ZM20.872,2.856 C21.311,2.846 22.297,2.737 22.444,3.027 C22.538,3.211 22.543,4.692 22.479,4.972 C22.457,5.070 22.388,5.187 22.305,5.228 C22.014,5.369 20.703,5.275 20.610,5.091 C20.528,4.930 20.527,3.186 20.610,3.027 C20.662,2.927 20.770,2.909 20.872,2.856 ZM23.283,2.856 C23.724,2.846 24.725,2.736 24.873,3.027 C24.967,3.211 24.971,4.692 24.908,4.972 C24.885,5.070 24.816,5.187 24.733,5.228 C24.442,5.369 23.114,5.275 23.021,5.091 C22.939,4.930 22.938,3.186 23.021,3.027 C23.073,2.927 23.180,2.909 23.283,2.856 ZM25.711,2.856 C26.151,2.846 27.136,2.737 27.284,3.027 C27.378,3.211 27.382,4.692 27.319,4.972 C27.296,5.070 27.227,5.187 27.144,5.228 C26.854,5.369 25.543,5.275 25.449,5.091 C25.367,4.930 25.366,3.186 25.449,3.027 C25.501,2.927 25.609,2.909 25.711,2.856 ZM4.362,4.579 C4.723,4.570 5.369,4.501 5.515,4.715 C5.666,4.936 5.618,6.212 5.445,6.336 C5.253,6.475 4.675,6.413 4.362,6.405 C4.368,6.553 4.374,6.701 4.380,6.848 C5.090,6.848 5.801,6.848 6.511,6.848 C6.702,6.848 7.165,6.912 7.280,6.814 C7.286,6.678 7.291,6.542 7.297,6.405 C7.008,6.411 6.485,6.478 6.266,6.370 C6.070,6.274 5.981,4.952 6.144,4.715 C6.292,4.501 6.934,4.572 7.297,4.579 C7.291,4.426 7.286,4.272 7.280,4.118 C6.569,4.118 5.859,4.118 5.148,4.118 C4.958,4.118 4.494,4.055 4.380,4.152 C4.374,4.295 4.368,4.437 4.362,4.579 ZM3.366,9.715 C3.815,9.707 5.867,9.644 6.057,9.783 C6.245,9.921 6.179,10.423 6.179,10.738 C6.179,10.935 6.218,11.228 6.144,11.369 C5.998,11.649 4.343,11.540 3.838,11.540 C3.567,11.540 3.256,11.572 3.139,11.421 C3.047,11.302 3.013,10.061 3.104,9.885 C3.156,9.786 3.263,9.767 3.366,9.715 ZM6.983,9.715 C7.432,9.707 9.483,9.643 9.673,9.783 C9.871,9.927 9.813,10.406 9.813,10.738 C9.813,10.969 9.842,11.261 9.743,11.404 C9.581,11.638 7.931,11.540 7.454,11.540 C7.185,11.540 6.871,11.572 6.756,11.421 C6.664,11.300 6.629,10.061 6.721,9.885 C6.772,9.786 6.880,9.767 6.983,9.715 ZM10.599,9.715 C11.339,9.707 13.017,9.567 13.394,9.902 C13.439,10.252 13.554,11.235 13.325,11.455 C13.201,11.573 12.885,11.540 12.643,11.540 C12.193,11.540 10.666,11.649 10.425,11.472 C10.291,11.374 10.219,10.113 10.337,9.885 C10.389,9.786 10.497,9.767 10.599,9.715 ZM14.233,9.715 C14.681,9.707 16.734,9.644 16.924,9.783 C17.112,9.921 17.046,10.423 17.046,10.738 C17.046,10.935 17.085,11.228 17.011,11.369 C16.865,11.649 15.227,11.540 14.722,11.540 C14.449,11.540 14.123,11.574 14.006,11.421 C13.914,11.300 13.879,10.061 13.971,9.885 C14.023,9.786 14.130,9.767 14.233,9.715 ZM35.076,27.423 C35.076,24.455 35.076,21.486 35.076,18.518 C35.076,17.060 35.252,15.137 34.936,13.911 C34.539,12.369 33.591,11.109 32.455,10.277 C32.805,11.147 33.154,12.018 33.503,12.888 C33.923,13.774 34.340,14.818 33.923,15.993 C33.780,16.395 33.541,16.731 33.294,17.034 C32.944,17.461 32.405,17.731 31.844,17.955 C31.855,17.972 31.867,17.989 31.879,18.007 C32.362,18.461 32.845,18.916 33.329,19.371 C33.476,19.515 33.738,19.650 33.783,19.883 C33.840,20.175 32.734,21.238 32.385,21.043 C29.666,18.473 26.946,15.901 24.226,13.331 C23.481,12.604 22.062,10.703 20.540,11.728 C19.985,12.101 19.648,13.088 20.103,13.809 C20.260,13.985 20.418,14.162 20.575,14.338 C21.705,15.504 22.835,16.670 23.964,17.835 C24.355,18.309 25.281,18.899 25.467,19.490 C25.659,20.099 25.188,20.516 25.013,20.906 C24.727,21.542 24.591,22.201 24.454,23.005 C24.239,24.255 24.713,25.736 25.117,26.502 C25.304,26.809 25.490,27.117 25.677,27.423 C28.809,27.423 31.943,27.423 35.076,27.423 ZM30.935,11.625 C30.935,12.649 30.935,13.673 30.935,14.696 C30.935,15.272 30.980,15.886 30.883,16.351 C31.346,16.180 31.759,16.018 32.001,15.635 C32.504,14.837 31.729,13.447 31.407,12.803 C31.250,12.410 31.092,12.018 30.935,11.625 ZM3.366,13.144 C3.815,13.136 5.867,13.073 6.057,13.212 C6.245,13.351 6.179,13.852 6.179,14.167 C6.179,14.364 6.218,14.657 6.144,14.799 C5.998,15.078 4.343,14.969 3.838,14.969 C3.569,14.969 3.254,15.001 3.139,14.850 C3.047,14.729 3.012,13.491 3.104,13.314 C3.156,13.215 3.263,13.196 3.366,13.144 ZM14.233,13.144 C14.681,13.136 16.734,13.073 16.924,13.212 C17.112,13.351 17.046,13.852 17.046,14.167 C17.046,14.364 17.085,14.657 17.011,14.799 C16.865,15.078 15.210,14.969 14.705,14.969 C14.436,14.969 14.121,15.001 14.006,14.850 C13.914,14.729 13.879,13.491 13.971,13.314 C14.023,13.215 14.130,13.196 14.233,13.144 ZM12.766,18.962 C10.495,19.798 8.223,20.633 5.952,21.470 C6.167,21.987 6.383,22.505 6.598,23.022 C6.744,23.340 6.799,23.699 7.000,23.960 C7.158,24.166 7.447,24.364 7.717,24.455 C8.253,24.638 8.775,24.401 9.167,24.250 C10.104,23.909 11.042,23.568 11.979,23.227 C15.584,21.919 19.189,20.611 22.794,19.303 C22.706,19.217 22.619,19.132 22.532,19.047 C22.508,19.019 22.485,18.990 22.462,18.962 C19.230,18.962 15.997,18.962 12.766,18.962 ZM4.939,18.978 C5.038,19.235 5.137,19.490 5.236,19.746 C5.934,19.496 6.633,19.246 7.332,18.996 C7.332,18.990 7.332,18.985 7.332,18.978 C6.534,18.978 5.736,18.978 4.939,18.978 ZM26.113,29.249 C26.113,30.546 26.113,31.843 26.113,33.139 C29.100,33.139 32.089,33.139 35.076,33.139 C35.076,31.843 35.076,30.546 35.076,29.249 C32.089,29.249 29.100,29.249 26.113,29.249 ZM26.917,29.710 C27.260,29.701 28.215,29.641 28.402,29.778 C28.587,29.914 28.588,31.332 28.402,31.467 C28.166,31.638 26.757,31.565 26.655,31.365 C26.582,31.222 26.581,30.022 26.655,29.881 C26.707,29.781 26.814,29.762 26.917,29.710 Z"/>
</svg>