<svg 
 xmlns="http://www.w3.org/2000/svg"
 xmlns:xlink="http://www.w3.org/1999/xlink"
 width="44px" height="40px">
<path fill-rule="evenodd"  fill="rgb(203, 203, 203)"
 d="M2.138,0.002 C12.391,0.002 22.647,0.002 32.900,0.002 C35.225,0.002 37.551,0.002 39.876,0.002 C41.508,0.002 42.666,-0.097 43.394,0.828 C43.599,1.087 43.789,1.419 43.888,1.776 C44.021,2.251 43.950,2.957 43.950,3.529 C43.950,4.759 43.950,5.990 43.950,7.220 C43.950,12.650 43.950,18.082 43.950,23.512 C43.950,24.742 43.950,25.973 43.950,27.203 C43.950,27.759 44.025,28.449 43.909,28.936 C43.783,29.462 43.475,29.964 43.106,30.255 C42.163,31.002 40.210,30.812 38.518,30.812 C34.938,30.812 31.357,30.812 27.777,30.812 C27.656,31.273 27.381,31.707 27.139,32.070 C27.056,32.173 26.974,32.276 26.892,32.379 C26.899,34.139 26.905,35.899 26.912,37.658 C26.912,38.466 27.086,39.749 26.480,39.968 C26.081,40.113 25.663,39.802 25.369,39.680 C24.237,39.226 23.105,38.772 21.974,38.318 C20.849,38.786 19.724,39.254 18.599,39.721 C18.217,39.879 17.586,40.198 17.262,39.783 C16.995,39.442 17.117,38.483 17.118,37.906 C17.118,36.064 17.118,34.221 17.118,32.379 C17.022,32.256 16.926,32.132 16.830,32.008 C16.599,31.662 16.352,31.248 16.233,30.812 C12.522,30.812 8.811,30.812 5.101,30.812 C2.916,30.812 1.235,31.055 0.389,29.657 C0.026,29.058 0.059,28.150 0.059,27.162 C0.059,25.657 0.059,24.151 0.059,22.646 C0.059,17.422 0.059,12.197 0.059,6.973 C0.059,5.417 -0.194,2.129 0.368,1.178 C0.642,0.713 1.093,0.333 1.623,0.126 C1.795,0.085 1.966,0.044 2.138,0.002 ZM2.323,1.302 C1.890,1.491 1.591,1.566 1.417,2.003 C1.250,2.423 1.356,3.205 1.356,3.735 C1.356,4.999 1.356,6.265 1.356,7.530 C1.356,12.705 1.356,17.882 1.356,23.058 C1.356,24.426 1.356,25.794 1.356,27.162 C1.356,27.793 1.275,28.600 1.520,28.997 C2.000,29.773 3.983,29.492 5.203,29.492 C8.763,29.492 12.324,29.492 15.883,29.492 C15.738,28.983 15.779,28.190 15.883,27.677 C13.853,27.677 11.822,27.677 9.792,27.677 C9.215,27.677 7.608,27.804 7.199,27.636 C6.732,27.445 6.876,26.913 6.747,26.379 C6.619,25.853 6.378,25.425 6.088,25.059 C5.738,24.614 5.146,24.277 4.525,24.110 C4.020,23.974 3.425,24.118 3.228,23.677 C3.117,23.427 3.166,22.969 3.166,22.625 C3.166,21.752 3.166,20.879 3.166,20.006 C3.166,17.057 3.166,14.108 3.166,11.159 C3.166,10.217 3.166,9.276 3.166,8.334 C3.166,7.958 3.093,7.390 3.228,7.117 C3.439,6.690 3.944,6.830 4.463,6.705 C4.970,6.581 5.404,6.347 5.759,6.065 C6.198,5.718 6.562,5.133 6.726,4.519 C6.882,3.936 6.707,3.322 7.261,3.137 C14.161,3.130 21.062,3.123 27.962,3.117 C30.890,3.123 33.820,3.130 36.748,3.137 C37.301,3.324 37.127,3.934 37.283,4.519 C37.405,4.977 37.640,5.386 37.900,5.715 C38.238,6.143 38.797,6.490 39.382,6.663 C39.900,6.818 40.559,6.666 40.781,7.117 C40.918,7.395 40.843,7.973 40.843,8.354 C40.836,9.303 40.829,10.252 40.822,11.200 C40.829,14.149 40.836,17.099 40.843,20.047 C40.843,20.906 40.843,21.766 40.843,22.625 C40.843,22.969 40.893,23.427 40.781,23.677 C40.600,24.083 40.168,23.967 39.670,24.069 C39.147,24.175 38.695,24.393 38.333,24.667 C37.895,24.996 37.502,25.550 37.324,26.131 C37.174,26.622 37.295,27.353 36.892,27.595 C36.525,27.816 35.003,27.677 34.423,27.677 C32.324,27.677 30.225,27.677 28.126,27.677 C28.126,27.685 28.126,27.691 28.126,27.698 C28.264,28.168 28.261,29.020 28.126,29.492 C31.631,29.492 35.137,29.492 38.641,29.492 C39.656,29.492 41.876,29.700 42.345,29.183 C42.697,28.795 42.654,28.124 42.654,27.368 C42.654,26.083 42.654,24.797 42.654,23.512 C42.654,18.233 42.654,12.953 42.654,7.674 C42.654,6.258 42.654,4.842 42.654,3.426 C42.654,2.576 42.705,1.864 42.222,1.508 C41.673,1.103 40.151,1.302 39.258,1.302 C36.721,1.302 34.183,1.302 31.645,1.302 C21.872,1.302 12.096,1.302 2.323,1.302 ZM8.064,4.436 C7.792,6.406 6.366,7.648 4.483,8.024 C4.490,12.946 4.497,17.869 4.504,22.790 C6.232,22.861 7.898,24.705 8.064,26.379 C10.780,26.379 13.496,26.379 16.212,26.379 C16.219,26.358 16.226,26.337 16.233,26.316 C16.574,25.836 16.735,25.265 17.076,24.811 C18.026,23.549 19.328,22.782 21.212,22.440 C21.520,22.383 21.986,22.317 22.365,22.378 C24.362,22.701 25.761,23.319 26.768,24.605 C27.055,24.970 27.332,25.373 27.550,25.801 C27.632,25.994 27.715,26.185 27.797,26.379 C30.513,26.379 33.230,26.379 35.946,26.379 C36.096,24.782 37.262,23.590 38.497,23.058 C38.840,22.962 39.183,22.866 39.526,22.769 C39.526,19.113 39.526,15.455 39.526,11.798 C39.526,10.871 39.526,9.942 39.526,9.015 C39.526,8.773 39.611,8.171 39.485,8.024 C39.109,7.860 38.702,7.828 38.353,7.674 C37.147,7.143 36.166,5.951 35.946,4.436 C26.653,4.436 17.357,4.436 8.064,4.436 ZM16.171,7.282 C19.312,7.282 22.454,7.282 25.595,7.282 C26.499,7.282 28.593,6.975 28.373,8.045 C28.198,8.898 26.389,8.602 25.390,8.602 C22.303,8.595 19.216,8.588 16.130,8.581 C15.329,8.364 15.604,7.585 16.171,7.282 ZM11.891,10.746 C17.241,10.746 22.592,10.746 27.941,10.746 C29.128,10.746 30.314,10.746 31.501,10.746 C32.134,10.746 32.872,10.795 32.694,11.551 C32.560,12.126 31.964,12.067 31.254,12.066 C30.074,12.066 28.894,12.066 27.715,12.066 C22.406,12.060 17.097,12.053 11.788,12.046 C11.411,11.933 11.138,11.398 11.438,10.994 C11.545,10.852 11.719,10.828 11.891,10.746 ZM11.809,14.232 C17.172,14.232 22.537,14.232 27.900,14.232 C29.093,14.232 30.287,14.232 31.480,14.232 C32.130,14.232 32.862,14.247 32.694,15.016 C32.568,15.592 31.978,15.531 31.275,15.531 C30.088,15.531 28.901,15.531 27.715,15.531 C23.463,15.531 19.209,15.531 14.957,15.531 C14.175,15.531 13.393,15.531 12.611,15.531 C12.326,15.531 11.923,15.580 11.706,15.490 C10.998,15.197 11.348,14.505 11.809,14.232 ZM21.892,16.645 C24.799,16.614 24.955,20.612 22.282,21.078 C20.692,21.356 19.330,19.614 19.916,18.109 C20.151,17.505 20.611,17.025 21.212,16.789 C21.439,16.741 21.665,16.693 21.892,16.645 ZM21.850,17.964 C21.513,18.126 21.244,18.226 21.130,18.604 C20.934,19.252 21.485,19.900 22.118,19.779 C23.226,19.568 23.171,17.922 21.850,17.964 ZM11.850,18.212 C12.687,18.212 13.524,18.212 14.360,18.212 C14.663,18.212 15.094,18.158 15.327,18.253 C15.526,18.334 15.797,18.608 15.739,18.934 C15.578,19.834 13.862,19.531 12.838,19.531 C12.424,19.531 11.866,19.592 11.603,19.428 C10.982,19.042 11.405,18.435 11.850,18.212 ZM28.826,18.212 C29.663,18.212 30.500,18.212 31.336,18.212 C31.638,18.212 32.072,18.157 32.303,18.253 C32.515,18.341 32.787,18.638 32.694,19.016 C32.500,19.814 30.718,19.531 29.752,19.531 C29.379,19.531 28.848,19.594 28.600,19.449 C27.948,19.070 28.348,18.452 28.826,18.212 ZM21.583,23.698 C21.151,23.864 20.679,23.832 20.286,23.986 C18.930,24.521 17.938,25.531 17.406,26.894 C16.262,29.821 18.263,32.339 20.245,33.143 C20.798,33.366 21.659,33.605 22.468,33.472 C24.434,33.149 25.789,32.171 26.480,30.586 C27.788,27.586 25.906,24.846 23.723,23.986 C23.120,23.749 22.436,23.694 21.583,23.698 ZM21.665,25.162 C24.140,25.128 26.239,27.280 25.204,29.843 C24.734,31.008 23.779,31.781 22.365,32.008 C19.916,32.401 17.881,29.706 18.784,27.388 C19.132,26.498 19.805,25.773 20.677,25.409 C20.977,25.284 21.338,25.295 21.665,25.162 ZM21.850,26.461 C21.638,26.509 21.425,26.557 21.212,26.605 C20.620,26.850 20.150,27.362 19.957,28.007 C19.536,29.415 20.810,30.938 22.200,30.709 C24.841,30.273 24.715,26.427 21.850,26.461 ZM18.414,33.637 C18.414,35.211 18.414,36.786 18.414,38.360 C19.566,37.892 20.719,37.425 21.871,36.958 C22.313,36.865 22.764,37.222 23.064,37.350 C23.908,37.686 24.752,38.023 25.595,38.360 C25.595,36.786 25.595,35.211 25.595,33.637 C23.387,35.142 20.621,35.171 18.414,33.637 Z"/>
</svg>